<?xml version="1.0" encoding="utf-8"?>
<!-- Generator: Adobe Illustrator 24.3.0, SVG Export Plug-In . SVG Version: 6.00 Build 0)  -->
<svg version="1.2" baseProfile="tiny" id="Layer_1" xmlns="http://www.w3.org/2000/svg" xmlns:xlink="http://www.w3.org/1999/xlink"
	 x="0px" y="0px" viewBox="0 0 658 178" overflow="visible" xml:space="preserve">
<g id="Greenom_x5F_Sharp">
	<g id="Greenom_1_">
		<g>
			<path fill="#FF8126" d="M450.37,79.34l-12.2,69.16c-0.84,4.77,2.35,8.65,7.12,8.65h51.87c4.77,0,9.33-3.87,10.17-8.65l12.2-69.16
				c0.84-4.77-2.35-8.65-7.12-8.65h-51.87C455.77,70.69,451.21,74.56,450.37,79.34z M477.16,139.86h-5.76
				c-4.77,0-7.96-3.87-7.12-8.65l6.1-34.58c0.84-4.77,5.4-8.65,10.17-8.65h5.76c4.77,0,7.96,3.87,7.12,8.65l-6.1,34.58
				C486.49,135.99,481.94,139.86,477.16,139.86z"/>
			<path fill="#FF8126" d="M657.87,79.34l-12.2,69.16c-0.84,4.77-5.4,8.65-10.17,8.65h-5.76c-4.77,0-4.5-21.16-3.66-25.94
				l5.69-34.58c0.84-4.77-2.35-8.65-7.12-8.65h-5.76c-4.77,0-9.33,3.87-10.17,8.65l-9.15,51.87c-0.84,4.77-5.4,8.65-10.17,8.65
				h-5.76c-4.77,0-7.96-3.87-7.12-8.65l9.15-51.87c0.84-4.77-2.35-8.65-7.12-8.65h-5.76c-4.77,0-9.33,3.87-10.17,8.65l-9.15,51.87
				c-0.84,4.77-5.4,8.65-10.17,8.65h-5.76c-4.77,0-7.96-3.87-7.12-8.65l12.2-69.16c0.84-4.77,5.4-8.65,10.17-8.65h97.98
				C655.52,70.69,658.71,74.56,657.87,79.34z"/>
		</g>
		<g>
			<path fill="#B8E62E" d="M196.77,79.34L196.77,79.34c-0.84,4.77-11.7,8.65-16.47,8.65h0.54c-4.77,0-9.33,3.87-10.17,8.65
				l-9.15,51.87c-0.84,4.77-5.4,8.65-10.17,8.65h-5.76c-4.77,0-7.96-3.87-7.12-8.65l12.2-69.16c0.84-4.77,5.4-8.65,10.17-8.65h28.82
				C194.42,70.69,197.61,74.56,196.77,79.34z"/>
			<path fill="#B8E62E" d="M230.07,69.54h28.82c4.77,0,7.96,3.87,7.12,8.65v0c-0.84,4.77-16.92,8.65-21.7,8.65h-17.29
				c-4.77,0-7.96-3.87-7.12-8.65l0,0C220.74,73.41,225.29,69.54,230.07,69.54z"/>
			<path fill="#B8E62E" d="M217.87,138.7h28.82c4.77,0,7.96,3.87,7.12,8.65v0c-0.84,4.77-16.92,8.65-21.7,8.65h-17.29
				c-4.77,0-7.96-3.87-7.12-8.65l0,0C208.54,142.58,213.1,138.7,217.87,138.7z"/>
			<path fill="#B8E62E" d="M223.97,104.12h28.82c4.77,0,7.96,3.87,7.12,8.65v0c-0.84,4.77-16.92,8.65-21.7,8.65h-17.29
				c-4.77,0-7.96-3.87-7.12-8.65l0,0C214.64,107.99,219.19,104.12,223.97,104.12z"/>
			<path fill="#B8E62E" d="M299.23,69.54h28.82c4.77,0,7.96,3.87,7.12,8.65v0c-0.84,4.77-16.92,8.65-21.7,8.65h-17.29
				c-4.77,0-7.96-3.87-7.12-8.65v0C289.9,73.41,294.46,69.54,299.23,69.54z"/>
			<path fill="#B8E62E" d="M287.03,138.7h28.82c4.77,0,7.96,3.87,7.12,8.65v0c-0.84,4.77-16.92,8.65-21.7,8.65h-17.29
				c-4.77,0-7.96-3.87-7.12-8.65v0C277.71,142.58,282.26,138.7,287.03,138.7z"/>
			<path fill="#B8E62E" d="M293.13,104.12h28.82c4.77,0,7.96,3.87,7.12,8.65v0c-0.84,4.77-16.92,8.65-21.7,8.65h-17.29
				c-4.77,0-7.96-3.87-7.12-8.65v0C283.8,107.99,288.36,104.12,293.13,104.12z"/>
			<path fill="#B8E62E" d="M427.32,79.34l-12.2,69.16c-0.84,4.77-5.4,8.65-10.17,8.65h-5.76c-4.77,0-4.5-21.16-3.66-25.94
				l5.69-34.58c0.84-4.77-2.35-8.65-7.12-8.65h-5.76c-4.77,0-9.33,3.87-10.17,8.65l-9.15,51.87c-0.84,4.77-5.4,8.65-10.17,8.65
				h-5.76c-4.77,0-7.96-3.87-7.12-8.65l12.2-69.16c0.84-4.77,5.4-8.65,10.17-8.65h51.87C424.97,70.69,428.16,74.56,427.32,79.34z"/>
			<path fill="#B8E62E" d="M40.47,50.52l-14.23,80.69c-0.84,4.77,2.35,8.65,7.12,8.65h51.87c4.77,0,9.33-3.87,10.17-8.65l6.1-34.58
				c0.84-4.77-2.35-8.65-7.12-8.65H65.56c-4.77,0-7.96-3.87-7.12-8.65l0,0c0.84-4.77,5.4-8.65,10.17-8.65h51.87
				c4.77,0,7.96,3.87,7.12,8.65l-12.2,69.16c-0.84,4.77-5.4,8.65-10.17,8.65H7.26c-4.77,0-7.96-3.87-7.12-8.65L20.46,33.23
				c0.84-4.77,5.4-8.65,10.17-8.65h97.98c4.77,0,7.96,3.87,7.12,8.65v0c-0.84,4.77-16.92,8.65-21.7,8.65h-63.4
				C45.86,41.87,41.31,45.75,40.47,50.52z"/>
		</g>
	</g>
	<g id="Studio_1_">
		<path fill="#FF8126" d="M168.96,24.85L168.96,24.85c4.77,0,7.96,3.87,7.12,8.65l0,0c-0.84,4.77-5.4,8.65-10.17,8.65h0
			c-4.77,0-7.96-3.87-7.12-8.65l0,0C159.63,28.72,164.18,24.85,168.96,24.85z"/>
		<g>
			<path fill="#FF8126" d="M209.85,37.23c-0.57,3.23-3.17,4.84-7.81,4.84c-1.58,0-3.01-0.19-4.3-0.57l1.09-2.76
				c1.26,0.46,2.48,0.69,3.67,0.69c1.32,0,2.29-0.13,2.92-0.38c0.62-0.26,0.99-0.69,1.09-1.29c0.11-0.63-0.07-1.16-0.54-1.58
				c-0.4-0.38-1.27-0.88-2.6-1.49c-1.21-0.56-2.07-1.17-2.59-1.83c-0.65-0.83-0.87-1.86-0.66-3.08c0.25-1.42,0.97-2.53,2.17-3.33
				c1.19-0.8,2.78-1.2,4.75-1.2c1.62,0,2.95,0.14,4,0.41l-0.94,2.75c-1.04-0.4-2.21-0.61-3.51-0.61c-1.95,0-3.01,0.52-3.2,1.56
				c-0.1,0.55,0.05,1,0.44,1.35c0.34,0.3,1.13,0.71,2.37,1.25c1.31,0.57,2.26,1.2,2.84,1.88C209.82,34.76,210.08,35.89,209.85,37.23
				z"/>
			<path fill="#FF8126" d="M251.29,25.51l-0.56,2.66c-1.63-0.12-3.17-0.19-4.64-0.19c-0.29,1.56-0.61,3.3-0.94,5.21
				c-0.52,2.97-0.97,5.78-1.35,8.43h-3.47c0.57-2.63,1.12-5.44,1.65-8.43c0.33-1.88,0.62-3.62,0.87-5.21c-1.16,0-2.77,0.07-4.83,0.2
				l0.57-2.67H251.29z"/>
			<path fill="#FF8126" d="M292.09,25.51c-0.56,2.77-1.09,5.55-1.58,8.32c-0.97,5.48-3.7,8.22-8.19,8.22
				c-2.22,0-3.79-0.61-4.69-1.82c-0.91-1.21-1.09-3.39-0.53-6.54c0.49-2.77,0.93-5.5,1.33-8.19h3.5c-0.6,2.79-1.13,5.48-1.58,8.07
				c-0.4,2.27-0.39,3.83,0.04,4.67c0.43,0.84,1.25,1.26,2.45,1.26c1.26,0,2.25-0.42,2.96-1.26c0.71-0.84,1.27-2.4,1.67-4.7
				c0.44-2.52,0.86-5.2,1.26-8.05H292.09z"/>
			<path fill="#FF8126" d="M333.05,33.01c-0.41,2.34-1.53,4.39-3.34,6.14c-1.81,1.75-4.07,2.63-6.78,2.63
				c-1.22,0-2.9-0.05-5.03-0.15c0.55-2.49,1.1-5.3,1.65-8.43c0.53-3.01,0.93-5.57,1.2-7.69h2.17c0.35,0,0.88-0.01,1.59-0.04
				c0.71-0.03,1.17-0.04,1.38-0.04c2.98,0,5.01,0.74,6.09,2.23C333.06,29.15,333.41,30.93,333.05,33.01z M329.57,33.54
				c0.28-1.58,0.05-2.92-0.68-4.01s-2.05-1.63-3.95-1.63c-0.36,0-0.85,0.04-1.48,0.11c-0.21,1.65-0.47,3.38-0.79,5.18
				c-0.35,1.97-0.65,3.93-0.91,5.87c0.52,0.11,1.04,0.16,1.58,0.16c1.78,0,3.19-0.55,4.24-1.65S329.29,35.13,329.57,33.54z"/>
			<path fill="#FF8126" d="M363.13,41.63h-3.5c0.56-2.56,1.11-5.37,1.65-8.43c0.53-3.01,0.93-5.58,1.2-7.69h3.5
				c-0.47,2.08-0.98,4.64-1.52,7.69C363.91,36.31,363.46,39.12,363.13,41.63z"/>
			<path fill="#FF8126" d="M408.46,33.27c-0.45,2.53-1.59,4.64-3.44,6.3c-1.85,1.67-3.91,2.5-6.2,2.5c-2.18,0-3.87-0.77-5.07-2.3
				c-1.2-1.53-1.59-3.48-1.17-5.84c0.45-2.53,1.59-4.64,3.44-6.3c1.85-1.67,3.91-2.5,6.2-2.5c2.18,0,3.87,0.76,5.07,2.29
				C408.49,28.95,408.88,30.9,408.46,33.27z M404.98,33.63c0.3-1.73,0.11-3.12-0.58-4.2c-0.69-1.07-1.69-1.61-2.99-1.61
				c-1.21,0-2.32,0.54-3.36,1.62c-1.03,1.08-1.69,2.45-1.99,4.1c-0.3,1.72-0.11,3.11,0.59,4.19c0.7,1.08,1.69,1.62,2.98,1.62
				c1.21,0,2.33-0.54,3.36-1.63C404.03,36.64,404.69,35.27,404.98,33.63z"/>
		</g>
	</g>
</g>
<g>
</g>
<g>
</g>
<g>
</g>
<g>
</g>
<g>
</g>
<g>
</g>
</svg>
